<?xml version="1.0" encoding="UTF-8"?>
<svg width="28px" height="26px" viewBox="0 0 28 26" version="1.1" xmlns="http://www.w3.org/2000/svg" xmlns:xlink="http://www.w3.org/1999/xlink">
    <title>Icon / User</title>
    <defs>
        <path d="M13.2166667,0 C20.3843939,0 26.2166667,5.83227273 26.2166667,13 C26.2166667,20.1677273 20.3843939,26 13.2166667,26 C6.04775758,26 0.216666667,20.1677273 0.216666667,13 C0.216666667,5.83227273 6.04775758,0 13.2166667,0 Z M11.102,13 L10.6166667,13 C8.46485714,13 6.71666667,14.7469524 6.71666667,16.9 L6.71666667,18.1071429 C6.71666667,18.876 7.34066667,19.5 8.10952381,19.5 L18.3238095,19.5 C19.0926667,19.5 19.7166667,18.876 19.7166667,18.1071429 L19.7166667,16.9 C19.7166667,14.7469524 17.9697143,13 15.8166667,13 L15.3325714,13 C14.6887619,13.2959048 13.9719048,13.4642857 13.2166667,13.4642857 C12.4626667,13.4642857 11.7482857,13.2959048 11.102,13 Z M13.2166667,4.33333333 C11.1224028,4.33333333 9.425,6.03073611 9.425,8.125 C9.425,10.2192639 11.1224028,11.9166667 13.2166667,11.9166667 C15.3121944,11.9166667 17.0083333,10.2192639 17.0083333,8.125 C17.0083333,6.03073611 15.3121944,4.33333333 13.2166667,4.33333333 Z" id="path-1"></path>
    </defs>
    <g id="Page-1" stroke="none" stroke-width="1" fill="none" fill-rule="evenodd">
        <g id="Ckan-Signin-Page" transform="translate(-794.000000, -4.000000)">
            <g id="Icon-/-User" transform="translate(794.000000, 4.000000)">
                <g id="Colour-/-Primary" transform="translate(0.216667, 0.000000)">
                    <mask id="mask-2" fill="white">
                        <use xlink:href="#path-1"></use>
                    </mask>
                    <use id="User" fill="#F6BE00" fill-rule="nonzero" xlink:href="#path-1"></use>
                    <g mask="url(#mask-2)" fill="#465870">
                        <g transform="translate(0.216667, 0.000000)">
                            <rect x="0" y="0" width="26" height="26"></rect>
                        </g>
                    </g>
                </g>
            </g>
        </g>
    </g>
</svg>