<?xml version="1.0" encoding="UTF-8"?>
<svg width="98px" height="12px" viewBox="0 0 98 12" version="1.1" xmlns="http://www.w3.org/2000/svg" xmlns:xlink="http://www.w3.org/1999/xlink">
    <!-- Generator: Sketch 58 (84663) - https://sketch.com -->
    <title>Graphics / Logo / vic.gov.au</title>
    <desc>Created with Sketch.</desc>
    <g id="Page-1" stroke="none" stroke-width="1" fill="none" fill-rule="evenodd">
        <g id="Ckan-Home-Page" transform="translate(-47.000000, -46.000000)" fill="#011A3C">
            <g id="Graphics-/-Logo-/-vic.gov.au" transform="translate(47.000000, 46.000000)">
                <path d="M5.18800584,11.7397959 L0,0.260204082 L3.45867056,0.260204082 L6.34089602,6.52040816 L9.22312149,0.260204082 L12.681792,0.260204082 L7.49378621,11.7397959 L5.18800584,11.7397959 Z M13.8195126,11.7397959 L13.8195126,0.260204082 L16.9141126,0.260204082 L16.9141126,11.7397959 L13.8195126,11.7397959 Z M24.4534076,-1.13686838e-13 C26.6226615,-1.13686838e-13 28.5795409,0.964285714 29.7627703,2.70918367 L27.183937,4.30102041 C26.6074919,3.50510204 25.7883331,2.96938776 24.6051037,2.96938776 C23.0274645,2.96938776 21.6621998,4.42346939 21.6621998,6 C21.6621998,7.57653061 23.0274645,9.03061224 24.6051037,9.03061224 C25.7883331,9.03061224 26.6074919,8.49489796 27.183937,7.69897959 L29.7627703,9.29081633 C28.5795409,11.0357143 26.6226615,12 24.4534076,12 C21.2374508,12 18.3552253,9.41326531 18.3552253,6 C18.3552253,2.58673469 21.2374508,-1.13686838e-13 24.4534076,-1.13686838e-13 Z M32.2809252,11.8622449 C31.4921056,11.8622449 30.8246429,11.2040816 30.8246429,10.3928571 C30.8246429,9.56632653 31.4921056,8.90816327 32.2809252,8.90816327 C33.100084,8.90816327 33.7675468,9.56632653 33.7675468,10.3928571 C33.7675468,11.2040816 33.100084,11.8622449 32.2809252,11.8622449 Z M40.7542347,7.37755102 L40.7542347,4.71428571 L45.9119013,4.71428571 L45.9119013,9.29081633 C44.7286719,11.0357143 42.7717925,12 40.6025386,12 C37.3865818,12 34.5043563,9.41326531 34.5043563,6 C34.5043563,2.58673469 37.3865818,-1.13686838e-13 40.6025386,-1.13686838e-13 C42.4684003,-1.13686838e-13 44.1673964,0.719387755 45.3657954,2.02040816 L43.0448454,3.96428571 C42.4987396,3.36734694 41.7554288,2.96938776 40.7542347,2.96938776 C39.1765955,2.96938776 37.8113308,4.42346939 37.8113308,6 C37.8113308,7.57653061 39.1765955,9.03061224 40.7542347,9.03061224 C41.6492415,9.03061224 42.3622131,8.80102041 42.908319,8.34183673 L42.908319,7.37755102 L40.7542347,7.37755102 Z M59.9741276,6 C59.9741276,9.41326531 57.0463933,12 53.6635708,12 C50.2807483,12 47.353014,9.41326531 47.353014,6 C47.353014,2.58673469 50.2807483,-1.13686838e-13 53.6635708,-1.13686838e-13 C57.0463933,-1.13686838e-13 59.9741276,2.58673469 59.9741276,6 Z M50.6599885,6 C50.6599885,7.66836735 52.0100836,9.03061224 53.6635708,9.03061224 C55.3170581,9.03061224 56.6671532,7.66836735 56.6671532,6 C56.6671532,4.33163265 55.3170581,2.96938776 53.6635708,2.96938776 C52.0100836,2.96938776 50.6599885,4.33163265 50.6599885,6 Z M65.9206139,11.7397959 L60.732608,0.260204082 L64.1912786,0.260204082 L67.073504,6.52040816 L69.9557295,0.260204082 L73.4144001,0.260204082 L68.2263942,11.7397959 L65.9206139,11.7397959 Z M72.3785326,11.8622449 C71.589713,11.8622449 70.9222502,11.2040816 70.9222502,10.3928571 C70.9222502,9.56632653 71.589713,8.90816327 72.3785326,8.90816327 C73.1976914,8.90816327 73.8651541,9.56632653 73.8651541,10.3928571 C73.8651541,11.2040816 73.1976914,11.8622449 72.3785326,11.8622449 Z M81.9050462,0.260204082 L87.1689001,11.7397959 L83.8012472,11.7397959 L83.2248021,10.4234694 L79.2807041,10.4234694 L78.704259,11.7397959 L75.3366061,11.7397959 L80.60046,0.260204082 L81.9050462,0.260204082 Z M80.2667286,7.89795918 L82.2387776,7.89795918 L81.3286011,5.41836735 L81.176905,5.41836735 L80.2667286,7.89795918 Z M98,0.260204082 L98,7.39285714 C98,10.3928571 96.1341383,12 93.1153863,12 C90.1269736,12 88.2611118,10.3928571 88.2611118,7.39285714 L88.2611118,0.260204082 L91.4163903,0.260204082 L91.4163903,7.53061224 C91.4163903,8.58673469 92.0686834,9.26020408 93.1153863,9.26020408 C94.1620892,9.26020408 94.829552,8.58673469 94.829552,7.53061224 L94.829552,0.260204082 L98,0.260204082 Z"></path>
            </g>
        </g>
    </g>
</svg>