<?xml version="1.0" encoding="UTF-8"?>
<svg width="78px" height="44px" viewBox="0 0 78 44" version="1.1" xmlns="http://www.w3.org/2000/svg" xmlns:xlink="http://www.w3.org/1999/xlink">
    <!-- Generator: Sketch 58 (84663) - https://sketch.com -->
    <title>VIC GOV Logo</title>
    <desc>Created with Sketch.</desc>
    <g id="Page-1" stroke="none" stroke-width="1" fill="none" fill-rule="evenodd">
        <g id="Ckan-Exportable-Files" transform="translate(-140.000000, -936.000000)" fill="#011A3C">
            <g id="VIC-GOV-Logo" transform="translate(140.000000, 936.000000)">
                <path d="M46.8366755,16.1239535 C48.2107152,16.1239535 49.3450728,17.2362326 49.3450728,18.5833488 C49.3450728,19.9304651 48.2107152,21.0427442 46.8366755,21.0427442 C45.4626358,21.0427442 44.3282781,19.9304651 44.3282781,18.5833488 C44.3282781,17.2362326 45.4626358,16.1239535 46.8366755,16.1239535 Z M46.8366755,23.7113953 C49.8120397,23.7113953 52.2000795,21.5006512 52.2000795,18.5833488 C52.2000795,15.6660465 49.8120397,13.455814 46.8366755,13.455814 C43.8613113,13.455814 41.4732715,15.6660465 41.4732715,18.5833488 C41.4732715,21.5006512 43.8613113,23.7113953 46.8366755,23.7113953 L46.8366755,23.7113953 Z" id="Fill-1"></path>
                <path d="M58.0934702,18.400186 L56.2653775,18.400186 L56.2653775,16.0845581 L58.0934702,16.0845581 C58.7066225,16.0845581 59.1074702,16.7650233 59.1074702,17.2490233 C59.1074702,17.7330233 58.7066225,18.400186 58.0934702,18.400186 Z M60.1478146,20.1924186 C61.1086093,19.5385581 61.8689801,18.5705581 61.8689801,17.2490233 C61.8689801,15.1953488 60.2015364,13.6778605 58.0934702,13.6778605 L53.5436424,13.6778605 L53.5436424,23.4888372 L56.2653775,23.4888372 L56.2653775,20.820186 L57.5464371,20.820186 L58.7872053,23.4888372 L61.8426358,23.4888372 L60.1478146,20.1924186 L60.1478146,20.1924186 Z" id="Fill-2"></path>
                <path d="M18.1977616,23.4023721 L20.9768344,23.4023721 L20.9768344,13.7663721 L18.1977616,13.7663721 L18.1977616,23.4023721 Z M27.4291391,16.1602791 C26.0804106,16.1602791 24.9904768,17.2526047 24.9904768,18.5756744 C24.9904768,19.8987442 26.0804106,20.9915814 27.4291391,20.9915814 C28.3114172,20.9915814 29.089351,20.5157674 29.5175762,19.8092093 L31.0130066,20.697907 L33.1711788,16.0850698 L35.4285298,16.0850698 L35.4285298,23.4888372 L38.1502649,23.4888372 L38.1502649,16.0850698 L40.8854305,16.0850698 L40.8854305,13.6778605 L34.2972715,13.6778605 L40.6963709,0 L0,0 L6.44042384,13.7663721 L9.44316556,13.7663721 L11.9071391,19.0330698 L14.3711126,13.7663721 L17.380053,13.7663721 L12.8715497,23.4023721 L10.9489272,23.4023721 L20.3481854,43.4929767 L29.9638808,22.9393488 C29.2184901,23.3665581 28.3527417,23.6126512 27.4291391,23.6126512 C24.5235099,23.6126512 22.2150199,21.4413023 22.2150199,18.5756744 C22.2150199,15.7105581 24.5235099,13.5392093 27.4291391,13.5392093 C29.2840927,13.5392093 30.9055629,14.5286977 31.7873245,15.9934884 L29.5175762,17.3426512 C29.089351,16.6493953 28.3114172,16.1602791 27.4291391,16.1602791 L27.4291391,16.1602791 Z" id="Fill-5"></path>
                <polygon id="Fill-3" points="63.5209272 23.4888372 66.2426623 23.4888372 66.2426623 13.6778605 63.5209272 13.6778605"></polygon>
                <path d="M71.5373642,20.0476279 L72.3814172,18.1377209 L72.4377219,18.1377209 L73.2817748,20.0476279 L71.5373642,20.0476279 Z M71.8994702,13.6768372 L67.3109007,23.4883256 L70.2289272,23.4883256 L70.7072583,22.3770698 L74.1123974,22.3770698 L74.5902119,23.4883256 L77.508755,23.4883256 L72.9201854,13.6768372 L71.8994702,13.6768372 L71.8994702,13.6768372 Z" id="Fill-4"></path>
            </g>
        </g>
    </g>
</svg>