<?xml version="1.0" encoding="UTF-8"?>
<svg width="180px" height="12px" viewBox="0 0 180 12" version="1.1" xmlns="http://www.w3.org/2000/svg" xmlns:xlink="http://www.w3.org/1999/xlink">
    <!-- Generator: Sketch 58 (84663) - https://sketch.com -->
    <title>VPS Data Directory logo</title>
    <desc>Created with Sketch.</desc>
    <g id="Page-1" stroke="none" stroke-width="1" fill="none" fill-rule="evenodd">
        <g id="Ckan-Home-Page" transform="translate(-164.000000, -46.000000)" fill="#011A3C">
            <g id="Group" transform="translate(20.000000, 20.000000)">
                <g id="VPS-Data-Directory-logo" transform="translate(144.000000, 26.000000)">
                    <polygon id="Fill-1" points="9.5616 0.2829 6.0556 8.6309 2.5656 0.2829 -0.0004 0.2829 4.9436 11.7439 7.1836 11.7439 12.1276 0.2829"></polygon>
                    <path d="M20.4194,4.1318 C20.4194,3.1058 19.7354,2.3868 18.4864,2.3868 L15.4764,2.3868 L15.4764,5.8938 L18.4864,5.8938 C19.7354,5.8938 20.4194,5.1928 20.4194,4.1318 M22.7294,4.1318 C22.7294,6.4578 21.1214,7.9978 18.4864,7.9978 L15.4764,7.9978 L15.4764,11.7438 L13.1494,11.7438 L13.1494,0.2828 L18.4864,0.2828 C21.1214,0.2828 22.7294,1.8398 22.7294,4.1318" id="Fill-2"></path>
                    <path d="M23.564,9.2979 L25.924,8.3569 C26.301,9.4689 27.207,9.9649 28.422,9.9649 C29.756,9.9649 30.457,9.3319 30.457,8.5109 C30.457,7.8609 30.149,7.4669 29.123,7.2619 L26.865,6.7999 C25.497,6.5269 23.855,5.7569 23.855,3.5159 C23.855,1.4639 25.531,0.0269 28.216,0.0269 C30.184,0.0269 31.757,0.9329 32.459,2.4559 L30.235,3.1909 C29.858,2.4729 29.072,2.0279 28.165,2.0279 C27.002,2.0279 26.301,2.6779 26.301,3.4479 C26.301,4.0289 26.557,4.4229 27.447,4.6109 L29.739,5.1069 C31.603,5.5179 32.749,6.6119 32.749,8.3909 C32.749,10.6149 30.919,11.9999 28.199,11.9999 C26.061,11.9999 24.163,11.1109 23.564,9.2979" id="Fill-4"></path>
                    <path d="M46.676,6.0137 C46.676,3.7897 45.102,2.3877 42.725,2.3877 L40.826,2.3877 L40.826,9.6397 L42.725,9.6397 C45.102,9.6397 46.676,8.2377 46.676,6.0137 M49.019,6.0137 C49.019,9.4347 46.505,11.7437 42.725,11.7437 L38.5,11.7437 L38.5,0.2837 L42.725,0.2837 C46.505,0.2837 49.019,2.5927 49.019,6.0137" id="Fill-7"></path>
                    <path d="M56.8076,7.1938 L55.2686,3.1058 L53.7116,7.1938 L56.8076,7.1938 Z M61.0496,11.7438 L58.5356,11.7438 L57.6116,9.2978 L52.9076,9.2978 L51.9846,11.7438 L49.4696,11.7438 L54.1396,0.2828 L56.3806,0.2828 L61.0496,11.7438 Z" id="Fill-9"></path>
                    <polygon id="Fill-11" points="69.6338 2.3872 65.8198 2.3872 65.8198 11.7432 63.4928 11.7432 63.4928 2.3872 59.6788 2.3872 59.6788 0.2832 69.6338 0.2832"></polygon>
                    <path d="M75.638,7.1938 L74.099,3.1058 L72.542,7.1938 L75.638,7.1938 Z M79.88,11.7438 L77.366,11.7438 L76.442,9.2978 L71.738,9.2978 L70.815,11.7438 L68.3,11.7438 L72.97,0.2828 L75.21,0.2828 L79.88,11.7438 Z" id="Fill-13"></path>
                    <path d="M93.0259,6.0137 C93.0259,3.7897 91.4519,2.3877 89.0739,2.3877 L87.1749,2.3877 L87.1749,9.6397 L89.0739,9.6397 C91.4519,9.6397 93.0259,8.2377 93.0259,6.0137 M95.3689,6.0137 C95.3689,9.4347 92.8539,11.7437 89.0739,11.7437 L84.8489,11.7437 L84.8489,0.2837 L89.0739,0.2837 C92.8539,0.2837 95.3689,2.5927 95.3689,6.0137" id="Fill-15"></path>
                    <polygon id="Fill-17" points="97.246 11.744 99.573 11.744 99.573 0.284 97.246 0.284"></polygon>
                    <path d="M104.293,5.9448 L107.201,5.9448 C108.381,5.9448 109.254,5.2268 109.254,4.1658 C109.254,3.1058 108.381,2.3868 107.201,2.3868 L104.293,2.3868 L104.293,5.9448 Z M111.785,11.7438 L108.86,11.7438 L106.141,8.0488 L104.293,8.0488 L104.293,11.7438 L101.967,11.7438 L101.967,0.2828 L107.201,0.2828 C109.767,0.2828 111.563,1.8398 111.563,4.1658 C111.563,6.0138 110.434,7.3818 108.672,7.8608 L111.785,11.7438 Z" id="Fill-19"></path>
                    <polygon id="Fill-20" points="122.1992 9.6396 122.1992 11.7436 113.4922 11.7436 113.4922 0.2836 122.1652 0.2836 122.1652 2.3876 115.8182 2.3876 115.8182 4.9706 121.6692 4.9706 121.6692 7.0396 115.8182 7.0396 115.8182 9.6396"></polygon>
                    <path d="M134.7842,8.9897 C133.8262,10.9397 131.8932,11.9997 129.6702,11.9997 C126.3012,11.9997 123.6492,9.3837 123.6492,6.0137 C123.6492,2.6607 126.3012,0.0267 129.6702,0.0267 C131.7052,0.0267 133.5182,0.9497 134.5452,2.5577 L132.4752,3.6357 C131.8252,2.6607 130.7992,2.2167 129.6702,2.2167 C127.6172,2.2167 125.9922,3.8417 125.9922,6.0137 C125.9922,8.1857 127.6172,9.8277 129.6702,9.8277 C130.9192,9.8277 132.0302,9.2977 132.6462,8.0827 L134.7842,8.9897 Z" id="Fill-21"></path>
                    <polygon id="Fill-22" points="145.1113 2.3872 141.2973 2.3872 141.2973 11.7432 138.9703 11.7432 138.9703 2.3872 135.1563 2.3872 135.1563 0.2832 145.1113 0.2832"></polygon>
                    <path d="M154.6709,6.0308 C154.6709,3.8418 153.0459,2.2168 150.9769,2.2168 C148.9059,2.2168 147.2809,3.8418 147.2809,6.0308 C147.2809,8.2198 148.9059,9.8108 150.9769,9.8108 C153.0459,9.8108 154.6709,8.2198 154.6709,6.0308 M157.0149,6.0308 C157.0149,9.3658 154.3629,11.9998 150.9769,11.9998 C147.5899,11.9998 144.9389,9.3658 144.9389,6.0308 C144.9389,2.6948 147.5899,0.0268 150.9769,0.0268 C154.3629,0.0268 157.0149,2.6948 157.0149,6.0308" id="Fill-23"></path>
                    <path d="M160.876,5.9448 L163.784,5.9448 C164.964,5.9448 165.837,5.2268 165.837,4.1658 C165.837,3.1058 164.964,2.3868 163.784,2.3868 L160.876,2.3868 L160.876,5.9448 Z M168.368,11.7438 L165.443,11.7438 L162.724,8.0488 L160.876,8.0488 L160.876,11.7438 L158.55,11.7438 L158.55,0.2828 L163.784,0.2828 C166.35,0.2828 168.146,1.8398 168.146,4.1658 C168.146,6.0138 167.017,7.3818 165.255,7.8608 L168.368,11.7438 Z" id="Fill-24"></path>
                    <polygon id="Fill-25" points="175.259 8.083 175.259 11.744 172.933 11.744 172.933 8.117 168.4 0.283 170.966 0.283 174.096 5.688 177.209 0.283 179.877 0.283"></polygon>
                </g>
            </g>
        </g>
    </g>
</svg>