<?xml version="1.0" encoding="utf-8"?>
<!-- Generator: Adobe Illustrator 26.0.1, SVG Export Plug-In . SVG Version: 6.00 Build 0)  -->
<svg version="1.1" id="Layer_1" xmlns="http://www.w3.org/2000/svg" xmlns:xlink="http://www.w3.org/1999/xlink" x="0px" y="0px"
	 viewBox="0 0 32 32" style="enable-background:new 0 0 32 32;" xml:space="preserve">
<style type="text/css">
	.st0{fill:#FFFFFF;}
	.st1{fill:#F8BE00;}
	.st2{fill-rule:evenodd;clip-rule:evenodd;}
	.st3{clip-path:url(#SVGID_00000183934911983701594230000014722787481325662594_);}
	.st4{fill:#010101;}
	.st5{fill:#E82C2A;}
	.st6{fill:#FFCE34;}
	.st7{clip-path:url(#SVGID_00000183229034151673563110000003591093261770055079_);fill:#FFFFFF;}
	.st8{fill:#006848;}
	.st9{fill:#14377D;}
	.st10{clip-path:url(#SVGID_00000081618502267563100670000017047280134901015687_);fill:#FFFFFF;}
	.st11{fill:#0052C2;}
	.st12{opacity:0.25;}
	.st13{fill:#011A3C;}
	.st14{fill:#F6F6F9;}
	.st15{clip-path:url(#SVGID_00000096763758017793986150000015041676183866009519_);fill:#D7DBE0;}
	.st16{clip-path:url(#SVGID_00000042006695820755427090000009877039865148456595_);fill:#D7DBE0;}
	.st17{fill-rule:evenodd;clip-rule:evenodd;fill:#F8BE00;}
	.st18{fill-rule:evenodd;clip-rule:evenodd;fill:#0052C2;}
	.st19{fill-rule:evenodd;clip-rule:evenodd;fill:#011A3C;}
</style>
<path class="st17" d="M32,16c0-8.82-7.18-16-16-16C7.18,0,0,7.18,0,16c0,8.82,7.18,16,16,16C24.82,32,32,24.82,32,16z M16,4.36
	c1.61,0,2.91,1.3,2.91,2.91s-1.3,2.91-2.91,2.91c-1.61,0-2.91-1.3-2.91-2.91S14.39,4.36,16,4.36z M13.09,14.55
	c0-1.61,1.3-2.91,2.91-2.91c1.61,0,2.91,1.3,2.91,2.91v8.73c0,1.61-1.3,2.91-2.91,2.91c-1.61,0-2.91-1.3-2.91-2.91V14.55z"/>
</svg>
